<svg xmlns="http://www.w3.org/2000/svg" width="103" height="104" viewBox="0 0 103 104">
  <g id="Group_2118" data-name="Group 2118" transform="translate(-42 -45)">
    <g id="Ellipse_19" data-name="Ellipse 19" transform="translate(42 45)" fill="none" stroke="#357ac8" stroke-width="1">
      <circle cx="46.5" cy="46.5" r="46.5" stroke="none"/>
      <circle cx="46.5" cy="46.5" r="46" fill="none"/>
    </g>
    <circle id="Ellipse_20" data-name="Ellipse 20" cx="46.5" cy="46.5" r="46.5" transform="translate(52 56)" fill="#eaf1fa"/>
    <g id="Group_1643" data-name="Group 1643" transform="translate(-22.048 -16.16)">
      <path id="Path_6800" data-name="Path 6800" d="M113.242,141.87c-.508-.366-.6-.695-.39-1.462a3.426,3.426,0,0,1,3.206-2.637v-3.61c-.161-.007-.32-.021-.479-.021l-6.13,0a3.522,3.522,0,0,1-.495-.02.62.62,0,0,1-.565-.607.607.607,0,0,1,.467-.683,2.368,2.368,0,0,1,.623-.056q15.979,0,31.958,0c1.216,0,1.627-.407,1.627-1.613,0-1.725,0-3.45,0-5.209h-42.67c-.009.136-.024.267-.025.4q0,2.479,0,4.957a1.275,1.275,0,0,0,1.457,1.467c1.232,0,2.464,0,3.7,0a1.86,1.86,0,0,1,.4.022.635.635,0,0,1,.563.7.606.606,0,0,1-.629.631c-.721.021-1.442.013-2.163.014s-1.443.017-2.163-.011a2.556,2.556,0,0,1-2.512-2.362A4.576,4.576,0,0,1,99,131.27q0-12.979,0-25.958a2.6,2.6,0,0,1,1.972-2.764,4.147,4.147,0,0,1,.982-.087c1.064-.01,2.127,0,3.253,0v-.52c0-1.337-.006-2.674,0-4.011a2.055,2.055,0,0,1,2.2-2.2q14.221-.006,28.442,0a2.055,2.055,0,0,1,2.192,2.207c.008,1.486,0,2.971,0,4.528.353,0,.678-.006,1,0,.53.012.823.264.817.69s-.31.667-.839.678c-.311.006-.623,0-.957,0V124.52h4.975c.008-.15.023-.307.023-.465q0-9.351,0-18.7c0-.99-.3-1.352-1.263-1.531a.673.673,0,0,1-.626-.783c.05-.375.329-.578.781-.569a2.568,2.568,0,0,1,2.438,2.241,4,4,0,0,1,.036.584q0,13,0,26a2.594,2.594,0,0,1-1.982,2.754,4.132,4.132,0,0,1-.982.083q-6.761.008-13.522,0h-.573v3.641a3.476,3.476,0,0,1,2.167.878,3.368,3.368,0,0,1,1.12,2.237.883.883,0,0,1-.467.975Zm23.419-34.757H113.786a4.439,4.439,0,0,1-.584-.024.62.62,0,0,1-.574-.643.608.608,0,0,1,.5-.656,2.588,2.588,0,0,1,.58-.049q11.177,0,22.354,0h.613v-.445q0-3.6,0-7.21c0-.769-.225-1-.992-1q-14.061,0-28.122,0c-.768,0-.99.227-.991,1q0,3.6,0,7.209v.445c.989,0,1.9,0,2.821,0a2.085,2.085,0,0,1,.533.057.606.606,0,0,1,.47.678.6.6,0,0,1-.556.608c-.327.033-.659.027-.99.029-.747,0-1.495,0-2.239,0v17.4h30.05Zm-31.484,17.412v-20.7h-3.269c-1.094,0-1.54.437-1.54,1.517q0,9.347,0,18.694c0,.159.014.318.021.485Zm12.325,9.641v3.591h8.437v-3.591Zm-3.2,6.306h14.824a1.9,1.9,0,0,0-1.913-1.312c-2.357-.007-4.715,0-7.073,0-1.336,0-2.673-.009-4.009.006A1.876,1.876,0,0,0,114.3,140.472Z" fill="#357ac8"/>
      <path id="Path_6801" data-name="Path 6801" d="M289.281,377.354a2.071,2.071,0,1,1-2.046-2.082A2.077,2.077,0,0,1,289.281,377.354Zm-1.37-.011a.725.725,0,0,0-.686-.694.7.7,0,1,0,0,1.391A.729.729,0,0,0,287.91,377.343Z" transform="translate(-165.13 -248)" fill="#357ac8"/>
      <path id="Path_6802" data-name="Path 6802" d="M181.268,220.949q0-3,0-5.992c0-.782.215-1,.98-1q6.039,0,12.077,0c.743,0,.971.224.971.97q0,6.038,0,12.075c0,.765-.226.984-1.006.984q-6.016,0-12.032,0c-.771,0-.99-.225-.991-1Q181.266,223.968,181.268,220.949Zm1.4-5.6v6.147a.4.4,0,0,0,.115.02c.073-.015.144-.038.215-.06a3.8,3.8,0,0,1,3.437.463c.628.435,1.218.925,1.841,1.367a2.208,2.208,0,0,0,2.758.053,3.654,3.654,0,0,1,2.85-.84v-7.15Zm-.027,11.223h11.275c0-.783-.015-1.544.007-2.3.009-.324-.127-.4-.416-.427a2.462,2.462,0,0,0-1.647.6,3.521,3.521,0,0,1-4.206.061c-.672-.449-1.294-.973-1.958-1.435a2.569,2.569,0,0,0-2.809-.087c-.1.052-.234.185-.236.282C182.631,224.352,182.637,225.444,182.637,226.567Z" transform="translate(-72.981 -104.888)" fill="#357ac8"/>
      <path id="Path_6803" data-name="Path 6803" d="M184.268,126.149c-.705,0-1.411.007-2.116,0s-1-.5-.655-1.121q1.051-1.859,2.134-3.7a.7.7,0,0,1,1.306-.009q1.083,1.84,2.137,3.7a.7.7,0,0,1-.647,1.132C185.709,126.156,184.988,126.149,184.268,126.149Zm-1.009-1.389h2.08c-.284-.5-.541-.945-.8-1.393-.073-.126-.154-.248-.26-.417-.324.559-.622,1.072-.917,1.586C183.327,124.6,183.3,124.663,183.259,124.759Z" transform="translate(-73.055 -22.308)" fill="#357ac8"/>
      <path id="Path_6804" data-name="Path 6804" d="M264.265,129.781h-5.494a2.4,2.4,0,0,1-.449-.017.672.672,0,0,1-.02-1.323,2.085,2.085,0,0,1,.448-.022h11.122a2.028,2.028,0,0,1,.448.022.673.673,0,0,1-.024,1.323,2.415,2.415,0,0,1-.449.017Z" transform="translate(-140.84 -29.007)" fill="#357ac8"/>
      <path id="Path_6805" data-name="Path 6805" d="M326.565,219.05q2.295,0,4.589,0c.179,0,.4-.039.527.05a1.278,1.278,0,0,1,.509.593.554.554,0,0,1-.452.673,1.937,1.937,0,0,1-.532.06q-4.634.005-9.268,0a2.212,2.212,0,0,1-.489-.046.61.61,0,0,1-.513-.687.6.6,0,0,1,.548-.612,3.027,3.027,0,0,1,.492-.032Q324.271,219.047,326.565,219.05Z" transform="translate(-196.885 -109.404)" fill="#357ac8"/>
      <path id="Path_6806" data-name="Path 6806" d="M326.773,273.9c-1.53,0-3.06,0-4.589,0-.193,0-.441.025-.564-.079a1.06,1.06,0,0,1-.414-.65c0-.2.244-.438.437-.587.121-.093.346-.066.524-.066q4.634,0,9.268,0a2.549,2.549,0,0,1,.447.034.663.663,0,0,1,.015,1.31,2.456,2.456,0,0,1-.49.039Q329.09,273.9,326.773,273.9Z" transform="translate(-197.125 -156.836)" fill="#357ac8"/>
      <path id="Path_6807" data-name="Path 6807" d="M326.5,247.21q-2.317,0-4.634,0c-.15,0-.342.045-.44-.028a1.44,1.44,0,0,1-.527-.579c-.11-.317.1-.574.414-.7a.962.962,0,0,1,.352-.053q4.837,0,9.673,0c.512,0,.825.279.818.695s-.314.664-.842.665C329.7,247.213,328.1,247.21,326.5,247.21Z" transform="translate(-196.823 -133.182)" fill="#357ac8"/>
      <path id="Path_6808" data-name="Path 6808" d="M326.546,300.7q-2.317,0-4.634,0a2.185,2.185,0,0,1-.448-.02.629.629,0,0,1-.545-.622.639.639,0,0,1,.472-.681.791.791,0,0,1,.266-.037q4.9,0,9.809,0a.68.68,0,1,1-.015,1.354C329.816,300.708,328.181,300.7,326.546,300.7Z" transform="translate(-196.869 -180.639)" fill="#357ac8"/>
      <path id="Path_6809" data-name="Path 6809" d="M261.074,155.609c-.78,0-1.561,0-2.342,0a2.008,2.008,0,0,1-.49-.051.6.6,0,0,1-.477-.627.6.6,0,0,1,.458-.641,2.233,2.233,0,0,1,.578-.061q2.252-.007,4.5,0a2.819,2.819,0,0,1,.448.028.635.635,0,0,1,.592.676.625.625,0,0,1-.615.654c-.3.028-.6.023-.9.025C262.245,155.611,261.659,155.609,261.074,155.609Z" transform="translate(-140.845 -51.901)" fill="#357ac8"/>
      <path id="Path_6810" data-name="Path 6810" d="M323.878,327.346c-.7,0-1.408.008-2.112,0-.568-.008-.86-.26-.852-.7.008-.424.29-.671.834-.674q2.156-.014,4.313,0c.543,0,.824.252.829.679.005.442-.287.691-.856.7C325.316,327.354,324.6,327.346,323.878,327.346Z" transform="translate(-196.867 -204.252)" fill="#357ac8"/>
      <path id="Path_6811" data-name="Path 6811" d="M240.973,241.838a2.087,2.087,0,1,1,2.1,2.08A2.1,2.1,0,0,1,240.973,241.838Zm2.806,0a.719.719,0,0,0-.706-.722.706.706,0,0,0-.73.692.723.723,0,0,0,.7.73A.737.737,0,0,0,243.778,241.835Z" transform="translate(-125.948 -127.748)" fill="#357ac8"/>
    </g>
  </g>
</svg>
