<svg xmlns="http://www.w3.org/2000/svg" width="103" height="104" viewBox="0 0 103 104">
  <g id="Group_2117" data-name="Group 2117" transform="translate(-42 -45)">
    <g id="Ellipse_18" data-name="Ellipse 18" transform="translate(42 45)" fill="none" stroke="#357ac8" stroke-width="1">
      <circle cx="46.5" cy="46.5" r="46.5" stroke="none"/>
      <circle cx="46.5" cy="46.5" r="46" fill="none"/>
    </g>
    <circle id="Ellipse_17" data-name="Ellipse 17" cx="46.5" cy="46.5" r="46.5" transform="translate(52 56)" fill="#eaf1fa"/>
    <path id="process_1_2" d="M16.74,46.872a4.248,4.248,0,0,1-2.666-.857,3.287,3.287,0,0,1-1.3-2.255H11.408A2.682,2.682,0,0,1,9.486,42.9a2.726,2.726,0,0,1-.868-2V32.518a18.061,18.061,0,0,1-6.355-6.573A17.674,17.674,0,0,1,0,17.148,16.756,16.756,0,0,1,4.867,4.986,15.961,15.961,0,0,1,16.74,0,15.961,15.961,0,0,1,28.613,4.986,16.756,16.756,0,0,1,33.48,17.148a17.673,17.673,0,0,1-2.263,8.8,18.06,18.06,0,0,1-6.355,6.573V40.9a2.726,2.726,0,0,1-.868,2,2.682,2.682,0,0,1-1.922.857H20.708a3.287,3.287,0,0,1-1.3,2.255A4.248,4.248,0,0,1,16.74,46.872ZM11.408,40.9H22.072V38.171H11.408Zm0-5.017H22.072V33.344H11.408Zm-.558-5.4h4.712V21.721l-5.456-5.653,1.55-1.588,5.084,5.208,5.084-5.208,1.55,1.588-5.456,5.653v8.765H22.63a14.194,14.194,0,0,0,5.828-5.367,14.789,14.789,0,0,0,2.232-7.971,13.96,13.96,0,0,0-4.061-10.13,13.3,13.3,0,0,0-9.889-4.16,13.3,13.3,0,0,0-9.889,4.16A13.959,13.959,0,0,0,2.79,17.148a14.789,14.789,0,0,0,2.232,7.971A14.194,14.194,0,0,0,10.85,30.486Z" transform="translate(81.721 78.837)" fill="#357ac8"/>
  </g>
</svg>
