<svg xmlns="http://www.w3.org/2000/svg" width="103" height="104" viewBox="0 0 103 104">
  <g id="Group_2120" data-name="Group 2120" transform="translate(-42 -45)">
    <g id="Ellipse_23" data-name="Ellipse 23" transform="translate(42 45)" fill="none" stroke="#357ac8" stroke-width="1">
      <circle cx="46.5" cy="46.5" r="46.5" stroke="none"/>
      <circle cx="46.5" cy="46.5" r="46" fill="none"/>
    </g>
    <circle id="Ellipse_24" data-name="Ellipse 24" cx="46.5" cy="46.5" r="46.5" transform="translate(52 56)" fill="#eaf1fa"/>
    <g id="Group_1645" data-name="Group 1645" transform="translate(-7.978 15.225)">
      <path id="Path_6817" data-name="Path 6817" d="M129.855,71.19c-.086.847-.169,1.7-.259,2.542a31.4,31.4,0,0,1-9.62,19.856c-.745.72-1.535,1.394-2.285,2.11a.977.977,0,0,0-.287.566c-.191,2.187-.354,4.377-.536,6.565a3.432,3.432,0,0,1-1.561,2.67c-2.379,1.6-4.763,3.188-7.173,4.738a2.48,2.48,0,0,1-3.816-1.736c-.292-1.79-.557-3.584-.836-5.375a2.737,2.737,0,0,0-.075-.3c-.43,0-.825.028-1.215-.006a3.791,3.791,0,0,1-2.409-1.18q-3.874-3.891-7.765-7.767a3.687,3.687,0,0,1-1.169-3.352,1.163,1.163,0,0,0,.012-.182.771.771,0,0,0-.036-.137c-.893-.141-1.806-.288-2.72-.43-1.009-.157-2.021-.293-3.026-.47a2.466,2.466,0,0,1-1.725-3.729c1.577-2.483,3.216-4.927,4.865-7.363a3.317,3.317,0,0,1,2.585-1.451c2.143-.176,4.285-.352,6.43-.5a1.11,1.11,0,0,0,.832-.45,35.186,35.186,0,0,1,9.232-7.836,31.713,31.713,0,0,1,11.786-3.834c1.116-.146,2.238-.244,3.357-.364h3.753a3.024,3.024,0,0,0,.35.078,3.618,3.618,0,0,1,3.182,2.872c.051.235.086.474.129.711ZM123.7,66.547l0-.055c-.988.069-1.978.117-2.964.212a29.234,29.234,0,0,0-10.81,2.992,32.867,32.867,0,0,0-14,14.193c-.141.266-.061.4.119.579q6.571,6.561,13.13,13.135a.427.427,0,0,0,.622.075c1.109-.666,2.27-1.255,3.334-1.987a32.8,32.8,0,0,0,10.466-11.3,28,28,0,0,0,3.219-10.6c.208-1.98.219-3.984.258-5.978.019-.988-.265-1.223-1.266-1.26C125.1,66.527,124.4,66.547,123.7,66.547ZM106.631,99.071l-12.1-12.1c-.309,1.248-.6,2.487-.927,3.719a1.243,1.243,0,0,0,.41,1.306c2.351,2.33,4.682,4.68,7.029,7.015,1.321,1.314.914,1.234,2.856.812C104.829,99.618,105.738,99.319,106.631,99.071Zm.341,8.649c.22-.14.374-.236.526-.336,1.781-1.176,3.57-2.339,5.339-3.533,1.326-.895,1.292-.552,1.386-2.349.006-.106.025-.212.034-.318.076-.995.15-1.99.225-2.995-.083.008-.118,0-.14.016-.169.1-.335.211-.5.317a30.978,30.978,0,0,1-6.3,3.1c-.457.162-1.13.2-1.314.517-.2.348.035.959.108,1.452C106.535,104.946,106.751,106.3,106.972,107.72ZM91.54,87.53a31.431,31.431,0,0,1,3.994-8.4c-1.6.133-3.1.235-4.6.405a1.21,1.21,0,0,0-.674.55c-1.169,1.73-2.313,3.478-3.464,5.22l-.89,1.35Z" fill="#357ac8"/>
      <path id="Path_6818" data-name="Path 6818" d="M94.522,355.539a4.382,4.382,0,0,1-.556.952q-4.233,4.274-8.5,8.513a1.372,1.372,0,1,1-1.948-1.929q4.261-4.278,8.538-8.541a1.346,1.346,0,0,1,1.556-.319A1.607,1.607,0,0,1,94.522,355.539Z" transform="translate(-0.08 -254.819)" fill="#357ac8"/>
      <path id="Path_6819" data-name="Path 6819" d="M90.527,321.992a2.445,2.445,0,0,1-.387.761q-2.229,2.291-4.514,4.528a1.366,1.366,0,0,1-1.914-1.948q2.23-2.259,4.489-4.489a1.283,1.283,0,0,1,1.518-.265A1.414,1.414,0,0,1,90.527,321.992Z" transform="translate(-0.281 -225.28)" fill="#357ac8"/>
      <path id="Path_6820" data-name="Path 6820" d="M156.15,387.692a1.422,1.422,0,0,1,1.432.805,1.3,1.3,0,0,1-.262,1.519c-.512.542-1.049,1.06-1.577,1.588-.958.958-1.906,1.927-2.879,2.87a1.365,1.365,0,0,1-2.337-.618,1.275,1.275,0,0,1,.35-1.261c1.489-1.5,2.979-3.006,4.5-4.483A2.7,2.7,0,0,1,156.15,387.692Z" transform="translate(-59.252 -284.307)" fill="#357ac8"/>
      <path id="Path_6821" data-name="Path 6821" d="M289.55,135.207a6.863,6.863,0,1,1,6.855,6.853A6.86,6.86,0,0,1,289.55,135.207Zm2.747.007a4.116,4.116,0,0,0,8.232-.015,4.116,4.116,0,1,0-8.232.015Z" transform="translate(-181.313 -56.669)" fill="#357ac8"/>
    </g>
  </g>
</svg>
