<svg xmlns="http://www.w3.org/2000/svg" width="39" height="39.04" viewBox="0 0 39 39.04">
  <g id="Group_2125" data-name="Group 2125" transform="translate(-1710.061 -10270.489)">
    <ellipse id="Ellipse_4_copy_12" data-name="Ellipse 4 copy 12" cx="19.5" cy="19.52" rx="19.5" ry="19.52" transform="translate(1710.061 10270.489)" fill="#000041"/>
    <path id="Icon_ionic-ios-arrow-round-forward" data-name="Icon ionic-ios-arrow-round-forward" d="M21.384,11.522a.961.961,0,0,0-.007,1.354l4.474,4.481H8.824a.957.957,0,0,0,0,1.913H25.843l-4.474,4.481a.968.968,0,0,0,.007,1.354.953.953,0,0,0,1.347-.007l6.063-6.107h0a1.074,1.074,0,0,0,.2-.3.913.913,0,0,0,.074-.368.959.959,0,0,0-.272-.67l-6.063-6.107A.937.937,0,0,0,21.384,11.522Z" transform="translate(1711.094 10272.68)" fill="#fff"/>
  </g>
</svg>
