<svg xmlns="http://www.w3.org/2000/svg" width="105.232" height="220.355" viewBox="0 0 105.232 220.355">
  <g id="Group_2028" data-name="Group 2028" transform="translate(16.869 60.084)">
    <g id="Group_2021" data-name="Group 2021" transform="translate(-16.869 60.082)">
      <g id="Group_2020" data-name="Group 2020">
        <g id="Group_2016" data-name="Group 2016">
          <path id="Path_7664" data-name="Path 7664" d="M-9.294,55.132a3.787,3.787,0,0,1-3.787,3.787,3.787,3.787,0,0,1-3.787-3.787,3.787,3.787,0,0,1,3.787-3.787A3.787,3.787,0,0,1-9.294,55.132Z" transform="translate(16.869 -51.345)" fill="#060000"/>
          <path id="Path_7665" data-name="Path 7665" d="M20.892,55.132A3.788,3.788,0,1,1,17.1,51.345,3.788,3.788,0,0,1,20.892,55.132Z" transform="translate(19.236 -51.345)" fill="#060000"/>
          <path id="Path_7666" data-name="Path 7666" d="M51.077,55.132a3.788,3.788,0,1,1-3.787-3.787A3.788,3.788,0,0,1,51.077,55.132Z" transform="translate(21.603 -51.345)" fill="#060000"/>
          <path id="Path_7667" data-name="Path 7667" d="M81.262,55.132a3.788,3.788,0,1,1-3.787-3.787A3.787,3.787,0,0,1,81.262,55.132Z" transform="translate(23.97 -51.345)" fill="#060000"/>
        </g>
        <g id="Group_2017" data-name="Group 2017" transform="translate(0 30.871)">
          <path id="Path_7668" data-name="Path 7668" d="M-9.294,83.759a3.788,3.788,0,0,1-3.787,3.787,3.788,3.788,0,0,1-3.787-3.787,3.788,3.788,0,0,1,3.787-3.788A3.788,3.788,0,0,1-9.294,83.759Z" transform="translate(16.869 -79.971)" fill="#060000"/>
          <path id="Path_7669" data-name="Path 7669" d="M20.892,83.759A3.788,3.788,0,1,1,17.1,79.971,3.788,3.788,0,0,1,20.892,83.759Z" transform="translate(19.236 -79.971)" fill="#060000"/>
          <path id="Path_7670" data-name="Path 7670" d="M51.077,83.759a3.788,3.788,0,1,1-3.787-3.788A3.788,3.788,0,0,1,51.077,83.759Z" transform="translate(21.603 -79.971)" fill="#060000"/>
          <path id="Path_7671" data-name="Path 7671" d="M81.262,83.759a3.788,3.788,0,1,1-3.787-3.788A3.788,3.788,0,0,1,81.262,83.759Z" transform="translate(23.97 -79.971)" fill="#060000"/>
        </g>
        <g id="Group_2018" data-name="Group 2018" transform="translate(0 61.742)">
          <path id="Path_7672" data-name="Path 7672" d="M-9.294,112.385a3.787,3.787,0,0,1-3.787,3.787,3.787,3.787,0,0,1-3.787-3.787,3.787,3.787,0,0,1,3.787-3.787A3.787,3.787,0,0,1-9.294,112.385Z" transform="translate(16.869 -108.598)" fill="#060000"/>
          <path id="Path_7673" data-name="Path 7673" d="M20.892,112.385A3.788,3.788,0,1,1,17.1,108.6,3.788,3.788,0,0,1,20.892,112.385Z" transform="translate(19.236 -108.598)" fill="#060000"/>
          <path id="Path_7674" data-name="Path 7674" d="M51.077,112.385a3.788,3.788,0,1,1-3.787-3.787A3.788,3.788,0,0,1,51.077,112.385Z" transform="translate(21.603 -108.598)" fill="#060000"/>
          <path id="Path_7675" data-name="Path 7675" d="M81.262,112.385a3.788,3.788,0,1,1-3.787-3.787A3.787,3.787,0,0,1,81.262,112.385Z" transform="translate(23.97 -108.598)" fill="#060000"/>
        </g>
        <g id="Group_2019" data-name="Group 2019" transform="translate(0 92.613)">
          <path id="Path_7676" data-name="Path 7676" d="M-9.294,141.012a3.788,3.788,0,0,1-3.787,3.787,3.788,3.788,0,0,1-3.787-3.787,3.788,3.788,0,0,1,3.787-3.788A3.788,3.788,0,0,1-9.294,141.012Z" transform="translate(16.869 -137.224)" fill="#060000"/>
          <path id="Path_7677" data-name="Path 7677" d="M20.892,141.012a3.788,3.788,0,1,1-3.788-3.788A3.788,3.788,0,0,1,20.892,141.012Z" transform="translate(19.236 -137.224)" fill="#060000"/>
          <path id="Path_7678" data-name="Path 7678" d="M51.077,141.012a3.788,3.788,0,1,1-3.787-3.788A3.788,3.788,0,0,1,51.077,141.012Z" transform="translate(21.603 -137.224)" fill="#060000"/>
          <path id="Path_7679" data-name="Path 7679" d="M81.262,141.012a3.788,3.788,0,1,1-3.787-3.788A3.788,3.788,0,0,1,81.262,141.012Z" transform="translate(23.97 -137.224)" fill="#060000"/>
        </g>
      </g>
    </g>
    <g id="Group_2027" data-name="Group 2027" transform="translate(-16.869 -60.084)">
      <g id="Group_2026" data-name="Group 2026">
        <g id="Group_2022" data-name="Group 2022">
          <path id="Path_7680" data-name="Path 7680" d="M-9.294-56.3a3.788,3.788,0,0,1-3.787,3.787A3.788,3.788,0,0,1-16.869-56.3a3.788,3.788,0,0,1,3.787-3.788A3.788,3.788,0,0,1-9.294-56.3Z" transform="translate(16.869 60.084)" fill="#060000"/>
          <path id="Path_7681" data-name="Path 7681" d="M20.892-56.3A3.788,3.788,0,0,1,17.1-52.508,3.788,3.788,0,0,1,13.316-56.3,3.788,3.788,0,0,1,17.1-60.084,3.789,3.789,0,0,1,20.892-56.3Z" transform="translate(19.236 60.084)" fill="#060000"/>
          <path id="Path_7682" data-name="Path 7682" d="M51.077-56.3a3.788,3.788,0,0,1-3.787,3.787A3.788,3.788,0,0,1,43.5-56.3a3.789,3.789,0,0,1,3.788-3.788A3.788,3.788,0,0,1,51.077-56.3Z" transform="translate(21.603 60.084)" fill="#060000"/>
          <path id="Path_7683" data-name="Path 7683" d="M81.262-56.3a3.788,3.788,0,0,1-3.787,3.787A3.788,3.788,0,0,1,73.686-56.3a3.789,3.789,0,0,1,3.788-3.788A3.788,3.788,0,0,1,81.262-56.3Z" transform="translate(23.97 60.084)" fill="#060000"/>
        </g>
        <g id="Group_2023" data-name="Group 2023" transform="translate(0 30.872)">
          <path id="Path_7684" data-name="Path 7684" d="M-9.294-27.67a3.787,3.787,0,0,1-3.787,3.787,3.787,3.787,0,0,1-3.787-3.787,3.787,3.787,0,0,1,3.787-3.787A3.787,3.787,0,0,1-9.294-27.67Z" transform="translate(16.869 31.457)" fill="#060000"/>
          <path id="Path_7685" data-name="Path 7685" d="M20.892-27.67A3.788,3.788,0,0,1,17.1-23.882a3.787,3.787,0,0,1-3.787-3.787A3.787,3.787,0,0,1,17.1-31.457,3.788,3.788,0,0,1,20.892-27.67Z" transform="translate(19.236 31.457)" fill="#060000"/>
          <path id="Path_7686" data-name="Path 7686" d="M51.077-27.67a3.788,3.788,0,0,1-3.787,3.787A3.788,3.788,0,0,1,43.5-27.67a3.788,3.788,0,0,1,3.788-3.787A3.788,3.788,0,0,1,51.077-27.67Z" transform="translate(21.603 31.457)" fill="#060000"/>
          <path id="Path_7687" data-name="Path 7687" d="M81.262-27.67a3.787,3.787,0,0,1-3.787,3.787,3.788,3.788,0,0,1-3.788-3.787,3.788,3.788,0,0,1,3.788-3.787A3.787,3.787,0,0,1,81.262-27.67Z" transform="translate(23.97 31.457)" fill="#060000"/>
        </g>
        <g id="Group_2024" data-name="Group 2024" transform="translate(0 61.742)">
          <path id="Path_7688" data-name="Path 7688" d="M-9.294.957a3.788,3.788,0,0,1-3.787,3.787A3.788,3.788,0,0,1-16.869.957a3.788,3.788,0,0,1,3.787-3.788A3.788,3.788,0,0,1-9.294.957Z" transform="translate(16.869 2.831)" fill="#060000"/>
          <path id="Path_7689" data-name="Path 7689" d="M20.892.957A3.788,3.788,0,1,1,17.1-2.831,3.788,3.788,0,0,1,20.892.957Z" transform="translate(19.236 2.831)" fill="#060000"/>
          <path id="Path_7690" data-name="Path 7690" d="M51.077.957a3.788,3.788,0,1,1-3.787-3.788A3.788,3.788,0,0,1,51.077.957Z" transform="translate(21.603 2.831)" fill="#060000"/>
          <path id="Path_7691" data-name="Path 7691" d="M81.262.957a3.788,3.788,0,1,1-3.787-3.788A3.788,3.788,0,0,1,81.262.957Z" transform="translate(23.97 2.831)" fill="#060000"/>
        </g>
        <g id="Group_2025" data-name="Group 2025" transform="translate(0 92.614)">
          <path id="Path_7692" data-name="Path 7692" d="M-9.294,29.583a3.787,3.787,0,0,1-3.787,3.787,3.787,3.787,0,0,1-3.787-3.787A3.787,3.787,0,0,1-13.082,25.8,3.787,3.787,0,0,1-9.294,29.583Z" transform="translate(16.869 -25.796)" fill="#060000"/>
          <path id="Path_7693" data-name="Path 7693" d="M20.892,29.583A3.788,3.788,0,1,1,17.1,25.8,3.788,3.788,0,0,1,20.892,29.583Z" transform="translate(19.236 -25.796)" fill="#060000"/>
          <path id="Path_7694" data-name="Path 7694" d="M51.077,29.583A3.788,3.788,0,1,1,47.289,25.8,3.788,3.788,0,0,1,51.077,29.583Z" transform="translate(21.603 -25.796)" fill="#060000"/>
          <path id="Path_7695" data-name="Path 7695" d="M81.262,29.583A3.788,3.788,0,1,1,77.474,25.8,3.787,3.787,0,0,1,81.262,29.583Z" transform="translate(23.97 -25.796)" fill="#060000"/>
        </g>
      </g>
    </g>
  </g>
</svg>
