<svg xmlns="http://www.w3.org/2000/svg" width="150.486" height="54.981" viewBox="0 0 150.486 54.981">
  <g id="Group_2036" data-name="Group 2036" transform="translate(-331.016 -43.284)" style="mix-blend-mode: multiply;isolation: isolate">
    <g id="Group_2035" data-name="Group 2035" transform="translate(331.017 43.284)">
      <g id="Group_2033" data-name="Group 2033">
        <circle id="Ellipse_770" data-name="Ellipse 770" cx="5.417" cy="5.417" r="5.417" transform="translate(0 0)"/>
        <circle id="Ellipse_771" data-name="Ellipse 771" cx="5.417" cy="5.417" r="5.417" transform="translate(46.551 0)"/>
        <path id="Path_7697" data-name="Path 7697" d="M400.471,48.7a5.417,5.417,0,1,1-5.416-5.417A5.416,5.416,0,0,1,400.471,48.7Z" transform="translate(-296.536 -43.284)"/>
        <circle id="Ellipse_772" data-name="Ellipse 772" cx="5.417" cy="5.417" r="5.417" transform="translate(139.653 0)"/>
      </g>
      <g id="Group_2034" data-name="Group 2034" transform="translate(0 44.147)">
        <circle id="Ellipse_773" data-name="Ellipse 773" cx="5.417" cy="5.417" r="5.417" transform="translate(0 0.001)"/>
        <circle id="Ellipse_774" data-name="Ellipse 774" cx="5.417" cy="5.417" r="5.417" transform="translate(46.551 0.001)"/>
        <path id="Path_7698" data-name="Path 7698" d="M400.471,76.5a5.417,5.417,0,1,1-5.416-5.417A5.415,5.415,0,0,1,400.471,76.5Z" transform="translate(-296.536 -71.081)"/>
        <circle id="Ellipse_775" data-name="Ellipse 775" cx="5.417" cy="5.417" r="5.417" transform="translate(139.653 0.001)"/>
      </g>
    </g>
  </g>
</svg>
