<svg xmlns="http://www.w3.org/2000/svg" width="107.835" height="107.642" viewBox="0 0 107.835 107.642">
  <g id="Group_1943" data-name="Group 1943" transform="translate(-676.586 -267.515)">
    <rect id="Rectangle_404" data-name="Rectangle 404" width="8.98" height="8.98" transform="translate(717.329 304.409)" fill="#357ac8"/>
    <rect id="Rectangle_405" data-name="Rectangle 405" width="7.857" height="8.98" transform="translate(735.289 304.409)" fill="#357ac8"/>
    <g id="Group_1976" data-name="Group 1976" transform="translate(676.586 267.515)">
      <g id="Group_1975" data-name="Group 1975">
        <path id="Path_7603" data-name="Path 7603" d="M784.4,365.558a23.652,23.652,0,0,0-3.409-12.389,23.365,23.365,0,0,0-9.654-8.4,1.457,1.457,0,0,1-.948-1.521c.025-1.4.021-2.861.017-4.273L770.4,337.5a8.417,8.417,0,0,0-8.765-8.777l-.434,0c-1.593,0-3.182-.008-4.774-.008l-9.4.008.982-2.549c.885-2.292,1.829-4.732,2.773-7.117L750.8,319a2.428,2.428,0,0,1,.78-.809c.687-.556,1.4-1.125,2.1-1.673,1.277-1.016,2.726-2.162,4.075-3.316a5.66,5.66,0,0,0,1.917-6.114,5.828,5.828,0,0,0-4.686-4.429c-.206-.046-.409-.1-.632-.152l-.78-.177.345-1c.067-.194.131-.383.2-.569.282-.775.573-1.559.855-2.33l.312-.834c.779-2.107,1.669-4.492,2.444-6.877a17.672,17.672,0,0,0-16.716-23.151l-2.065-.017c-2.288-.021-4.656-.038-6.978-.038-2.8,0-5.28.025-7.576.089a57.482,57.482,0,0,0-29.375,8.8,2.249,2.249,0,0,0-.855,1.471c-.089.657.565,1.011,1.125,1.188l1.091.354c.944.3,1.917.619,2.861.965a4.734,4.734,0,0,1,3.043,6.253,8.47,8.47,0,0,0,.594,7.151c.956,1.82,1.875,3.674,2.764,5.47l.573,1.146c.24.489.485.973.725,1.458l.126.27-.223.181a2.165,2.165,0,0,1-.291.206l-.042.017a2.971,2.971,0,0,1-.379.118,5.819,5.819,0,0,0-4.833,4.631,5.884,5.884,0,0,0,2.351,6.279c.3.244.6.5.9.746l.034.03a26.624,26.624,0,0,0,2.377,1.846,10.034,10.034,0,0,1,4.408,5.979,26.213,26.213,0,0,0,1.681,4.117c.3.632.607,1.273.885,1.922l.232.518-5.9,0c-1.311-.008-2.621-.008-3.932-.008-2.09,0-3.8.008-5.389.017a8.139,8.139,0,0,0-8.137,6.873,37.428,37.428,0,0,0-.2,5.992c.008.371.013.737.021,1.1a2.215,2.215,0,0,1-1.424,2.313c-7.3,3.708-11.457,9.57-12.367,17.424a62.594,62.594,0,0,0-.244,7.593v.093c.013,1.041.021,2.115.013,3.173a1.982,1.982,0,0,0,.375,1.462,2.052,2.052,0,0,0,1.492.4H782.507c1.45,0,1.892-.434,1.9-1.854,0-.611,0-1.222,0-1.833C784.42,369.569,784.433,367.547,784.4,365.558ZM690.591,372.3H679.37v-1.559c0-.868,0-1.77-.008-2.65-.042-3.384.013-6.422,1.074-9.4a19.689,19.689,0,0,1,8.52-10.48,7.716,7.716,0,0,1,.683-.362,3.421,3.421,0,0,1,.489-.16l.464-.105Zm63.1-66.987a3.228,3.228,0,0,1,3.173,2,3.345,3.345,0,0,1,.27,1.31,3.261,3.261,0,0,1-1.348,2.642c-.556.468-1.146.935-1.774,1.433l-.442.35-.737.581-.678.539.83-8.651.181.008-.013-.181.16-.008C753.448,305.326,753.575,305.317,753.689,305.317Zm-45.526,8.335c-.379-.312-.746-.611-1.112-.9-.843-.67-1.614-1.289-2.334-1.985a3.1,3.1,0,0,1-.468-3.687,3.2,3.2,0,0,1,3.042-1.761c.131,0,.27,0,.4.017l.312.029.851,8.853Zm-.131-15.7-.185-.375c-.3-.624-.611-1.239-.91-1.841-.788-1.567-1.53-3.047-2.153-4.623V291.1a4.686,4.686,0,0,1,.025-3.11,7.927,7.927,0,0,0-.257-6.384,7.391,7.391,0,0,0-4.441-3.851.59.59,0,0,1-.3-.228,1.467,1.467,0,0,0-.148-.16l-.354-.379.463-.215c.476-.223.944-.447,1.412-.67l.287-.135c.931-.442,1.808-.864,2.739-1.252a55.242,55.242,0,0,1,21.4-4.391c5.048-.038,10.168-.038,15.208,0l.08,0h0a14.941,14.941,0,0,1,14.078,19.944c-.3.889-.636,1.8-.952,2.655l-.131.358c-.1.261-.194.523-.287.784l.046.333h-.948l.143-.409c-.683-4.138-3.017-7.488-5.28-10.724-.7-1.011-1.34-1.922-1.938-2.861-.5-.771-1.315-.826-2.132-.2-1.146.885-2.343,1.841-3.657,2.929a15.549,15.549,0,0,1-10.025,3.662h-.063a17.222,17.222,0,0,0-9.629,3.106c-2.579,1.728-5.1,3.4-7.77,5.179l-.11.072q-1.176.784-2.36,1.572Zm4.353.434c3.215-2.128,6.363-4.227,9.363-6.236a14.086,14.086,0,0,1,7.872-2.579h.16a18.413,18.413,0,0,0,11.963-4.42c.354-.291.708-.573,1.075-.864l.32-.253c.232-.185.468-.367.712-.56l.3-.244.228.316c5.613,7.926,5.988,9.144,5.7,18.6l-.017.362H735c-2.107,0-2.351.24-2.381,2.347,0,.126-.008.257-.017.4l-.03.674H728.38l0-1.1c0-.19,0-.375,0-.556-.017-1.319-.463-1.766-1.766-1.766H711.146l-.072-.274C710.51,300.185,710.758,299.464,712.385,298.381Zm30.7,8.908v0c.021,1.3.038,2.651-.051,3.991a1.889,1.889,0,0,1-2.094,1.694c-.615.013-1.226.017-1.841.017-.569,0-1.079,0-1.551-.021a2,2,0,0,1-2.128-1.917c-.055-1.239-.046-2.448-.034-3.725.008-.573.013-1.108.013-1.648v-.367h7.673v.367C743.074,306.219,743.082,306.754,743.087,307.289Zm-17.47-.017c0,.514.008,1,.008,1.471,0,.792-.008,1.534-.042,2.3l0,.055a1.941,1.941,0,0,1-1.947,1.871.806.806,0,0,1-.1-.008c-.523.03-1.134.046-1.783.046-.59,0-1.2-.017-1.8-.038-.008,0-.034,0-.059,0h-.042a1.985,1.985,0,0,1-1.938-2.027c-.046-1.171-.042-2.309-.029-3.67.008-.527.013-1.058.013-1.6v-.367H725.6v.367Q725.6,306.482,725.616,307.272Zm-14.694-.544c-.008-.118-.008-.236-.008-.358,0-.1,0-.2,0-.312,0-.126,0-.253,0-.4v-.371h4.2v4.934c0,3.556,1.955,5.52,5.5,5.524h.8c.683.008,1.357,0,2.031,0h.084a4.87,4.87,0,0,0,4.842-4.9c.008-.358.008-.712,0-1.079v-.957h4.243v.931c0,.4,0,.818,0,1.218a4.865,4.865,0,0,0,4.732,4.77c1.184.042,2.625.042,3.805,0a4.83,4.83,0,0,0,4.72-4.766c.025-1.222.017-2.452.013-3.6l-.009-2.04H750.2l-.038.4c-.055.6-.1,1.205-.148,1.8-.1,1.344-.206,2.655-.388,3.923a46.337,46.337,0,0,1-5.5,16.126,1.953,1.953,0,0,1-1.791,1.163,1.212,1.212,0,0,1-.173-.008c-4.02-.008-8.128-.021-12.178-.021-3.712,0-7.479.008-11.2.025-.025,0-.089,0-.156,0a1.884,1.884,0,0,1-1.715-1.108A46.723,46.723,0,0,1,710.923,306.729Zm56.714,65.622h-74.2l-.025-.514c0-.067,0-.131-.008-.194-.021-.257-.034-.5-.034-.746q-.006-16.642,0-33.289c0-3.843,2.3-6.135,6.14-6.135h62.01c3.771,0,6.114,2.318,6.114,6.051Zm14.007-3.236v.577c0,.746,0,1.5,0,2.259v.367H770.447V347.371l.539.282a19.513,19.513,0,0,1,10.64,17.142C781.651,366.228,781.647,367.631,781.643,369.114Z" transform="translate(-676.586 -267.515)"/>
      </g>
    </g>
    <g id="Group_1977" data-name="Group 1977" transform="translate(723.737 353.017)">
      <path id="Path_7604" data-name="Path 7604" d="M795.262,470.425h0a6.776,6.776,0,1,0,6.78,6.738A6.784,6.784,0,0,0,795.258,470.425Zm-.008,10.475h-.042a3.708,3.708,0,0,1,.034-7.416h.034a3.7,3.7,0,0,1,3.674,3.742A3.741,3.741,0,0,1,795.254,480.9Z" transform="translate(-788.482 -470.425)" fill="#357ac8"/>
    </g>
    <g id="Group_1979" data-name="Group 1979" transform="translate(711.594 334.633)">
      <g id="Group_1978" data-name="Group 1978" transform="translate(0 0)">
        <path id="Path_7630" data-name="Path 7630" d="M768.748,440.2l-2.035,1.837c-.08-.067-.16-.135-.232-.2-2-1.993-4.028-4.016-6.021-6.009-1.049-1.053-1.058-1.622-.042-2.646q1.58-1.587,3.177-3.177l3.211-3.207,1.837,1.867-5.533,5.427-.266.261Z" transform="translate(-759.664 -426.795)" fill="#357ac8"/>
      </g>
    </g>
    <g id="Group_1981" data-name="Group 1981" transform="translate(740.28 334.763)">
      <g id="Group_1980" data-name="Group 1980" transform="translate(0 0)">
        <path id="Path_7631" data-name="Path 7631" d="M836.894,434.66a1.164,1.164,0,0,1-.3.784,1.033,1.033,0,0,1-.1.1c-1.681,1.715-3.476,3.493-5.061,5.061l-1.719,1.7-1.829-1.938,5.76-5.587-5.908-5.769,2.073-1.9.455.455,1.193,1.18.5.493c1.5,1.483,3.038,3.013,4.555,4.568A1.152,1.152,0,0,1,836.894,434.66Z" transform="translate(-827.742 -427.105)" fill="#357ac8"/>
      </g>
    </g>
    <g id="Group_1983" data-name="Group 1983" transform="translate(724.373 334.801)">
      <g id="Group_1982" data-name="Group 1982" transform="translate(0 0)">
        <path id="Path_7632" data-name="Path 7632" d="M802.255,428.847,792.2,442.226l-2.212-1.648L800.051,427.2Z" transform="translate(-789.992 -427.195)" fill="#357ac8"/>
      </g>
    </g>
  </g>
</svg>
