<svg xmlns="http://www.w3.org/2000/svg" width="26.548" height="26.542" viewBox="0 0 26.548 26.542">
  <path id="Icon_awesome-instagram" data-name="Icon awesome-instagram" d="M13.272,8.7a6.8,6.8,0,1,0,6.805,6.8A6.794,6.794,0,0,0,13.272,8.7Zm0,11.229A4.424,4.424,0,1,1,17.7,15.508,4.432,4.432,0,0,1,13.272,19.933ZM21.943,8.425a1.587,1.587,0,1,1-1.587-1.587A1.584,1.584,0,0,1,21.943,8.425Zm4.507,1.611a7.855,7.855,0,0,0-2.144-5.561,7.907,7.907,0,0,0-5.561-2.144c-2.191-.124-8.76-.124-10.951,0A7.9,7.9,0,0,0,2.232,4.469,7.88,7.88,0,0,0,.088,10.03c-.124,2.191-.124,8.759,0,10.951a7.855,7.855,0,0,0,2.144,5.561,7.917,7.917,0,0,0,5.561,2.144c2.191.124,8.76.124,10.951,0a7.855,7.855,0,0,0,5.561-2.144,7.906,7.906,0,0,0,2.144-5.561c.124-2.191.124-8.753,0-10.945Zm-2.831,13.3A4.479,4.479,0,0,1,21.1,25.855c-1.747.693-5.893.533-7.824.533s-6.083.154-7.824-.533a4.479,4.479,0,0,1-2.523-2.523c-.693-1.747-.533-5.893-.533-7.824s-.154-6.082.533-7.824A4.479,4.479,0,0,1,5.448,5.162c1.747-.693,5.893-.533,7.824-.533s6.083-.154,7.824.533a4.479,4.479,0,0,1,2.523,2.523c.693,1.747.533,5.893.533,7.824S24.312,21.591,23.619,23.332Z" transform="translate(0.005 -2.237)" fill="#fff"/>
</svg>
