<svg xmlns="http://www.w3.org/2000/svg" width="24.908" height="24.907" viewBox="0 0 24.908 24.907">
  <path id="Icon_awesome-linkedin-in" data-name="Icon awesome-linkedin-in" d="M5.575,24.908H.411V8.279H5.575ZM2.991,6.01A3,3,0,1,1,5.981,2.991,3.016,3.016,0,0,1,2.991,6.01ZM24.9,24.908H19.75V16.813c0-1.929-.039-4.4-2.685-4.4-2.685,0-3.1,2.1-3.1,4.264v8.234H8.81V8.279h4.953v2.268h.072a5.426,5.426,0,0,1,4.886-2.685c5.226,0,6.187,3.441,6.187,7.912v9.135Z" transform="translate(0 -0.001)" fill="#fff"/>
</svg>
