<svg xmlns="http://www.w3.org/2000/svg" width="83.979" height="108.562" viewBox="0 0 83.979 108.562">
  <g id="Group_1941" data-name="Group 1941" transform="translate(-469.94 -64.16)">
    <g id="Group_1958" data-name="Group 1958" transform="translate(469.941 102.523)">
      <path id="Path_7584" data-name="Path 7584" d="M553.908,159.791c.005-.056.01-.086.01-.116a1.419,1.419,0,0,0-1.38-1.446h-.025c-.273-.035-.546-.076-.819-.111a17.7,17.7,0,0,0-2.068-.217c-1.032-.035-1.406-.581-1.825-1.35a2.961,2.961,0,0,1,.511-3.9,11.486,11.486,0,0,0,1.138-1.608l.01-.015.01-.015a1.394,1.394,0,0,0-.152-1.916c-1.588-1.618-3.2-3.231-4.809-4.8l-.035-.04a1.383,1.383,0,0,0-1.962-.081l-.015.01-.01.01a24.481,24.481,0,0,0-2.26,1.83,1.689,1.689,0,0,1-1.229.541,3.8,3.8,0,0,1-1-.177,2.914,2.914,0,0,1-2.417-3.206,8.59,8.59,0,0,0-.238-1.5c-.238-1.274-.637-1.623-1.881-1.643-.7-.01-1.4-.01-2.1-.01H529.88c-.5.005-1,.005-1.492.005-2.7,0-2.816.106-3.079,2.776a.584.584,0,0,0-.005.086c.142,2.124-.738,3.373-2.619,3.7a2.5,2.5,0,0,1-.526.056,2.456,2.456,0,0,1-1-.212l-.015-.005-.01-.005a18.643,18.643,0,0,1-1.689-1.143c-.3-.222-.617-.45-.925-.657a2.092,2.092,0,0,0-1.128-.465,1.723,1.723,0,0,0-1.158.647c-1.5,1.471-3,2.978-4.47,4.475-.809.829-.839,1.4-.106,2.361.212.278.44.561.662.829a18.2,18.2,0,0,1,1.208,1.6l.005.015.005.01a2.47,2.47,0,0,1,.223,1.532c-.248,1.886-1.431,2.816-3.605,2.837a7.822,7.822,0,0,0-1.385.222l-.02.005h-.02a1.5,1.5,0,0,0-1.365,1.6c0,.592,0,1.163-.005,1.734-.005,1.588-.01,3.231.015,4.844.01,1.067.435,1.517,1.557,1.674a18.141,18.141,0,0,0,2.326.243,2.277,2.277,0,0,1,2.3,1.573,2.737,2.737,0,0,1-.425,3.479,15.977,15.977,0,0,0-1.219,1.7l-.015.015-.01.015-.041.046a1.521,1.521,0,0,0,.223,2.129l.015.005.005.01c.394.394.784.789,1.173,1.183,1.1,1.112,2.245,2.26,3.383,3.373a1.636,1.636,0,0,0,1.133.576,1.945,1.945,0,0,0,1.148-.485c.374-.283.738-.576,1.107-.87.475-.384.971-.779,1.477-1.153a1.458,1.458,0,0,1,.9-.308,1.322,1.322,0,0,1,.142.005h.02l.02.005c1.724.465,3.3,1.208,3.125,3.519a2.08,2.08,0,0,0,.056.485c.41,2.493.41,2.493,2.882,2.634a.506.506,0,0,1,.263.111c.02.015.035.025.051.035l.126.076V191h-1.785q-13.8-.008-27.6-.005T472.1,191c-1.785,0-2.149.359-2.149,2.144-.005,3.337-.005,6.725,0,10.067.005,4.263,2.766,7.013,7.028,7.013q12,.008,23.993.005t23.993-.005c4.44,0,7.1-2.675,7.114-7.155.005-2.24,0-4.475,0-6.715v-9.648h.253c.516,0,.885,0,1.254.005,1.755-.01,2.114-.334,2.275-2.033.03-.319.071-.637.111-.961.061-.49.121-1,.152-1.5.046-.855.516-1.2,1.173-1.588a3.6,3.6,0,0,1,1.825-.566,3.359,3.359,0,0,1,2.366,1.138,8.81,8.81,0,0,0,1.234.89,2.183,2.183,0,0,0,1.158.47,1.847,1.847,0,0,0,1.239-.678c.764-.753,1.532-1.532,2.275-2.286.329-.339.652-.673.986-1,1.128-1.143,1.745-1.765,1.775-2.306s-.5-1.2-1.527-2.4c-1.117-1.3-1.653-2.523-.612-4.232a1.819,1.819,0,0,1,1.466-1.128c.925-.1,1.866-.293,2.776-.48l.42-.086a1.4,1.4,0,0,0,1.239-1.482C553.924,164.25,553.924,162.005,553.908,159.791Zm-24.741,43.693a3.583,3.583,0,0,1-3.762,3.833q-12.2.008-24.382.01t-24.377-.01c-.056.005-.121.005-.187.005s-.131,0-.192-.005a3.63,3.63,0,0,1-3.433-3.813c-.01-2.139-.01-4.338-.005-6.467v-3.079h56.233l.03.212a5.529,5.529,0,0,1,.076.7l.005,1.987C529.177,199.029,529.187,201.274,529.167,203.483Zm21.768-38.166-.207.04c-.308.051-.627.111-.94.172-.753.137-1.532.283-2.316.384a1.93,1.93,0,0,0-1.78,1.487,31.711,31.711,0,0,1-1.482,3.711,1.734,1.734,0,0,0,.187,2.028c.511.622,1,1.249,1.471,1.861.2.263.4.521.6.779l.142.182-.162.157-2.887,2.756-.152.142-.172-.121-.642-.45c-.632-.445-1.35-.951-2.048-1.476a1.749,1.749,0,0,0-2.023-.126,33.428,33.428,0,0,1-3.671,1.542,1.865,1.865,0,0,0-1.426,1.724c-.071.784-.152,1.532-.243,2.331-.04.354-.081.718-.121,1.082l-.02.228h-4.374l-.04-.212c-.061-.359-.126-.718-.192-1.077-.147-.819-.3-1.664-.43-2.5a1.683,1.683,0,0,0-1.264-1.451,36.777,36.777,0,0,1-3.792-1.552,1.827,1.827,0,0,0-.91-.248,1.777,1.777,0,0,0-1.208.47c-.622.516-1.249,1.006-1.856,1.482-.258.2-.516.4-.764.6l-.182.137-.157-.162-2.766-2.816-.147-.152.121-.172c.172-.243.344-.5.526-.753.435-.627.885-1.279,1.365-1.921a1.935,1.935,0,0,0,.152-2.235,30.242,30.242,0,0,1-1.552-3.681,1.783,1.783,0,0,0-1.654-1.33c-.794-.081-1.557-.172-2.361-.268l-1.031-.121-.222-.025v-4.338l.207-.035,1.006-.182c.764-.137,1.552-.283,2.326-.4a1.93,1.93,0,0,0,1.734-1.542,17.838,17.838,0,0,1,1.38-3.4l.005-.01.005-.01a1.952,1.952,0,0,0-.238-2.468c-.5-.576-.966-1.173-1.411-1.75-.187-.243-.374-.485-.561-.723l-.147-.182.167-.157,2.887-2.73.152-.142.172.116c.212.152.44.313.678.48.607.42,1.294.9,1.957,1.4a1.884,1.884,0,0,0,2.22.147,23.862,23.862,0,0,1,3.469-1.471,1.85,1.85,0,0,0,1.5-1.775c.061-.753.157-1.507.258-2.3q.068-.539.137-1.107l.025-.222h.223c.3,0,.592-.005.89-.005s.587-.005.88-.005c.693,0,1.224.01,1.719.04.354.02.7.521.774.844.212.92.349,1.841.47,2.7a1.922,1.922,0,0,0,1.517,1.755l.01.005h.015a24.1,24.1,0,0,1,3.57,1.471,1.726,1.726,0,0,0,.93.268,1.754,1.754,0,0,0,1.178-.455c.612-.516,1.219-1,1.866-1.512.273-.217.551-.44.834-.662l.187-.152.157.177,2.65,2.973.137.152-.116.162c-.147.207-.3.435-.47.673-.415.6-.885,1.284-1.375,1.952a1.9,1.9,0,0,0-.142,2.23l.005.01.01.015a29.209,29.209,0,0,1,1.487,3.56,1.745,1.745,0,0,0,1.623,1.38c.779.066,1.547.167,2.356.273l1.092.137.223.025Z" transform="translate(-469.942 -140.03)"/>
    </g>
    <g id="Group_1959" data-name="Group 1959" transform="translate(469.94 64.16)">
      <path id="Path_7585" data-name="Path 7585" d="M532.058,70.91a7.76,7.76,0,0,0-.207-1.841,6.5,6.5,0,0,0-6.619-4.91H477.247c-4.642,0-7.307,2.665-7.307,7.312v74.34c0,2.129.723,2.422,1.426,2.427s1.461-.273,1.461-2.4V79.931h56.339v.253c0,.546,0,1.026-.005,1.507v1.921c0,1.669,0,3.4.01,5.092.005.49.137,1.33.966,1.461a2.316,2.316,0,0,0,.268.015,2.073,2.073,0,0,0,1.224-.389,1.953,1.953,0,0,0,.41-1.325C532.063,82.626,532.073,76.73,532.058,70.91Zm-2.913,4.945-.005.475v.03l-.005.025a1.593,1.593,0,0,1-.126.369l-.071.142H472.878v-.253c0-.662-.01-1.33-.02-1.987-.025-1.507-.045-3.064.061-4.586a3.477,3.477,0,0,1,3.236-2.993c.223-.02.435-.025.647-.025.1,0,.192,0,.293.005h47.738c2.948,0,4.328,1.365,4.328,4.3C529.166,72.857,529.156,74.379,529.146,75.856Z" transform="translate(-469.94 -64.16)"/>
    </g>
    <g id="Group_1960" data-name="Group 1960" transform="translate(493.921 84.441)">
      <path id="Path_7618" data-name="Path 7618" d="M529.918,104.821a1.786,1.786,0,0,1,.076,1.669c-.839,2.169-1.714,4.369-2.559,6.492-.364.915-.728,1.825-1.087,2.741l-5.9,14.891c-.025.061-.051.126-.071.187-.061.152-.111.288-.177.43a1.563,1.563,0,0,1-1.36,1.077,1.513,1.513,0,0,1-.576-.121,1.414,1.414,0,0,1-.743-2.012c.865-2.22,1.76-4.475,2.624-6.649q.493-1.236.981-2.478,3.057-7.706,6.108-15.412c.334-.849.688-1.34,1.5-1.365h.04A1.324,1.324,0,0,1,529.918,104.821Z" transform="translate(-517.366 -104.27)" fill="#357ac8"/>
    </g>
    <g id="Group_1961" data-name="Group 1961" transform="translate(511.256 89.811)">
      <path id="Path_7619" data-name="Path 7619" d="M561.03,124.745c-2.225,2.28-4.5,4.576-6.76,6.826a1.784,1.784,0,0,1-1.229.6,1.352,1.352,0,0,1-.986-.47,1.439,1.439,0,0,1,.182-2.154c1.391-1.365,2.8-2.7,4.293-4.111l1.77-1.679.192-.182-.192-.182-1.512-1.451c-1.38-1.33-2.665-2.559-3.949-3.8a9.662,9.662,0,0,1-.774-.8,1.433,1.433,0,0,1-.01-2,1.4,1.4,0,0,1,1.972-.1c.03.03.056.056.1.1.743.693,1.471,1.436,2.169,2.159.288.288.571.581.86.87.369.379.743.753,1.117,1.128.91.92,1.856,1.871,2.766,2.816A1.5,1.5,0,0,1,561.03,124.745Z" transform="translate(-551.65 -114.89)" fill="#357ac8"/>
    </g>
    <g id="Group_1962" data-name="Group 1962" transform="translate(480.72 89.806)">
      <path id="Path_7620" data-name="Path 7620" d="M500.842,131.728a1.49,1.49,0,0,1-1.021.48,1.073,1.073,0,0,1-.763-.334c-2.518-2.457-5.031-5-7.458-7.539a1.221,1.221,0,0,1,.046-1.734c.02-.015.04-.035.061-.051l.01-.01.01-.01c2.356-2.412,4.758-4.844,7.155-7.231a1.356,1.356,0,0,1,1.916-.046.545.545,0,0,1,.061.056,1.448,1.448,0,0,1,.02,2.038l-.045.04c-1.451,1.522-2.963,3.029-4.424,4.49l-.253.253c-.233.233-.49.445-.814.713-.182.147-.379.308-.6.5l-.212.182.2.192,1.259,1.219c1.532,1.476,2.958,2.857,4.394,4.247a3.977,3.977,0,0,1,.637.723A1.354,1.354,0,0,1,500.842,131.728Z" transform="translate(-491.26 -114.88)" fill="#357ac8"/>
    </g>
    <g id="Group_1963" data-name="Group 1963" transform="translate(521.88 117.081)">
      <path id="Path_7589" data-name="Path 7589" d="M581.448,168.82h-.061a8.791,8.791,0,0,0,.061,17.581h.061a8.791,8.791,0,0,0-.061-17.581Zm1.714,14.234-.03.005h-.03l-.248-.005v-5.577c.005-.319.005-.652-.015-.971a1.464,1.464,0,0,0-1.36-1.492h-.051a1.436,1.436,0,0,0-1.441,1.436c-.051,1.067-.04,2.144-.035,3.191,0,.445.005.89.005,1.335v2.109l-.3-.051c-2.452-.41-4.293-3.064-4.1-5.916a5.868,5.868,0,0,1,5.335-5.375c.172-.015.354-.02.526-.02a5.837,5.837,0,0,1,5.845,5.345A5.634,5.634,0,0,1,583.162,183.054Z" transform="translate(-572.66 -168.82)" fill="#357ac8"/>
    </g>
    <g id="Group_1964" data-name="Group 1964" transform="translate(491.859 162.29)">
      <path id="Path_7621" data-name="Path 7621" d="M531.553,259.676c0,1.2-.986,1.456-1.815,1.461q-3.641.008-7.281.01t-7.276-.01a2.12,2.12,0,0,1-1.542-.516,1.331,1.331,0,0,1-.349-1c.041-1.138,1.052-1.385,1.891-1.391.956,0,1.906-.005,2.862-.005.743,0,1.492,0,2.24.005h4.349c.7-.005,1.411-.005,2.114-.005,1,0,2,.005,2.993.01C530.962,258.25,531.558,258.72,531.553,259.676Z" transform="translate(-513.289 -258.23)" fill="#357ac8"/>
    </g>
    <g id="Group_1965" data-name="Group 1965" transform="translate(499.559 70.521)">
      <path id="Path_7622" data-name="Path 7622" d="M540.022,78.252a1.418,1.418,0,0,1-1.426,1.38h-.056c-.526.015-1.1.02-1.8.02h-1.183c-.394-.005-.789-.005-1.183-.005h-.116c-.43,0-.865,0-1.294.005s-.86.005-1.289.005c-.531,0-1.057-.005-1.608-.015-.035,0-.071.005-.106.005a1.454,1.454,0,0,1-1.441-1.345v-.035a1.43,1.43,0,0,1,1.365-1.492h.081c1.411-.025,2.837-.035,4.227-.035,1.487,0,2.988.015,4.45.04a1.4,1.4,0,0,1,.991.45A1.415,1.415,0,0,1,540.022,78.252Z" transform="translate(-528.517 -76.74)" fill="#357ac8"/>
    </g>
  </g>
</svg>
