<svg xmlns="http://www.w3.org/2000/svg" width="19.077" height="19.077" viewBox="0 0 19.077 19.077">
  <path id="Icon_awesome-phone" data-name="Icon awesome-phone" d="M.692.916,4.567.022A.9.9,0,0,1,5.592.54L7.38,4.713a.892.892,0,0,1-.257,1.043L4.865,7.6a13.809,13.809,0,0,0,6.6,6.6l1.848-2.258a.893.893,0,0,1,1.043-.257l4.173,1.788a.9.9,0,0,1,.522,1.028l-.894,3.875a.894.894,0,0,1-.872.693A17.287,17.287,0,0,1,0,1.788.893.893,0,0,1,.692.916Z" transform="translate(0.001 0.001)" fill="#357ac8"/>
</svg>
