<svg xmlns="http://www.w3.org/2000/svg" width="25.454" height="17.182" viewBox="0 0 25.454 17.182">
  <path id="Icon_zocial-email" data-name="Icon zocial-email" d="M.072,19.728V5.59q0-.025.074-.466l8.321,7.118L.17,20.219a2.08,2.08,0,0,1-.1-.491Zm1.1-15.587a1.058,1.058,0,0,1,.417-.074H24a1.39,1.39,0,0,1,.442.074L16.1,11.284l-1.1.884L12.811,13.96l-2.185-1.792-1.1-.884ZM1.2,21.176l8.37-8.026,3.24,2.626,3.24-2.626,8.37,8.026A1.179,1.179,0,0,1,24,21.25H1.594a1.112,1.112,0,0,1-.393-.074Zm15.955-8.935,8.3-7.118a1.465,1.465,0,0,1,.074.466V19.728a1.881,1.881,0,0,1-.074.491Z" transform="translate(-0.072 -4.068)" fill="#357ac8"/>
</svg>
