<svg xmlns="http://www.w3.org/2000/svg" width="29.555" height="24.003" viewBox="0 0 29.555 24.003">
  <path id="Icon_awesome-twitter" data-name="Icon awesome-twitter" d="M26.517,9.363c.019.263.019.525.019.788,0,8.007-6.095,17.233-17.234,17.233A17.117,17.117,0,0,1,0,24.665a12.53,12.53,0,0,0,1.463.075,12.131,12.131,0,0,0,7.52-2.588,6.068,6.068,0,0,1-5.663-4.2,7.639,7.639,0,0,0,1.144.094,6.407,6.407,0,0,0,1.594-.206A6.058,6.058,0,0,1,1.2,11.894v-.075a6.1,6.1,0,0,0,2.738.769,6.066,6.066,0,0,1-1.875-8.1,17.218,17.218,0,0,0,12.489,6.338,6.838,6.838,0,0,1-.15-1.388A6.063,6.063,0,0,1,24.885,5.294a11.926,11.926,0,0,0,3.844-1.463,6.041,6.041,0,0,1-2.663,3.338,12.143,12.143,0,0,0,3.488-.938,13.021,13.021,0,0,1-3.038,3.132Z" transform="translate(0 -3.381)" fill="#fff"/>
</svg>
