<svg xmlns="http://www.w3.org/2000/svg" width="110.785" height="105.57" viewBox="0 0 110.785 105.57">
  <g id="Group_1992" data-name="Group 1992" transform="translate(-138.725 -97.42)">
    <path id="Path_7575" data-name="Path 7575" d="M247.9,169.953a4.307,4.307,0,0,0-2.967-1.106l-.059-.012a1.877,1.877,0,0,1-1.272-.933c-.381-.773-.684-1.54-1-2.348-.125-.321-.25-.636-.38-.963l-.107-.256.184-.2.149-.172c.119-.137.25-.291.38-.44a4.388,4.388,0,0,0-.119-6.415,3.7,3.7,0,0,1-1.159-2.919c.012-8.335.018-16.831.018-25.047q0-9.756.006-19.512c0-3.9-1.088-6.932-3.323-9.269a9.154,9.154,0,0,0-6.706-2.937h-20q-31.284,0-62.568.012c-5.024,0-9.061,3.639-10.03,9.055a6.141,6.141,0,0,1-.161.612l-.054.2v64.637a7,7,0,0,1,.2.69c.791,4.608,4.275,9.227,10.273,9.227.178,0,.357,0,.541-.012,1.26-.053,2.61-.083,4.239-.083,1.136,0,2.277.012,3.419.03s2.271.024,3.407.024h.184c.838,0,2.235-.232,2.253-1.736a1.572,1.572,0,0,0-.422-1.165,2.465,2.465,0,0,0-1.784-.583c-1.046,0-2.087-.006-3.133-.012q-1.864-.009-3.728-.012c-1.807,0-3.294.012-4.685.042-.137.006-.3.012-.464.012a6.3,6.3,0,0,1-5.975-4.3,11.926,11.926,0,0,1-.8-4.263c-.042-9.845-.036-19.851-.036-29.53q.009-4.272.006-8.531v-1.635H237.94v23.02l-.482-.042a3.738,3.738,0,0,0-.446-.024,5.022,5.022,0,0,0-3.532,1.474l-.036.042-.048.024a1.609,1.609,0,0,1-.856.244,1.759,1.759,0,0,1-.529-.083c-.41-.143-.809-.321-1.189-.493a11.465,11.465,0,0,0-1.3-.511A1.659,1.659,0,0,1,228.213,152a4.359,4.359,0,0,0-4.34-4.275h-.065c-.606-.03-1.195-.042-1.772-.042-.957,0-1.926.036-2.883.113a3.813,3.813,0,0,0-3.591,3.163,3.409,3.409,0,0,1-2.973,3.4,1.5,1.5,0,0,0-.541.25,1.626,1.626,0,0,1-.945.345,1.839,1.839,0,0,1-1.207-.583l-.054-.054a4.374,4.374,0,0,0-6.183.137c-.9.862-1.944,1.879-2.919,2.931a4.394,4.394,0,0,0-.1,5.957c.178.208.357.4.523.583.077.083.161.166.232.25l.184.208-.1.256c-.125.321-.25.636-.369.945-.321.82-.618,1.6-.987,2.36l-.006.018-.006.012a1.767,1.767,0,0,1-1.213.874l-.018.006h-.024c-3.08.279-4.649,1.974-4.667,5.036v4.435h-8.05c-1.647,0-3.288,0-4.935.006a2.058,2.058,0,0,0-1.552.595,1.7,1.7,0,0,0-.38,1.361c.107.969.85,1.528,2.045,1.528h16.355c1.974,0,2.134.107,2.842,1.885v.012l.012.024a8.286,8.286,0,0,0,.559,1.29c.012.012.018.024.024.03a1.61,1.61,0,0,1-.321,2.229,4.29,4.29,0,0,0-.048,5.969c1.017,1.124,2.1,2.2,3.216,3.21A4.776,4.776,0,0,0,207,197.7a2.6,2.6,0,0,0,1.778-.63A3.593,3.593,0,0,1,211.216,196a6.3,6.3,0,0,1,2.42.672l.3.125a1.992,1.992,0,0,1,1.5,1.956,4.348,4.348,0,0,0,4.358,4.221,1.051,1.051,0,0,0,.137-.006c.713.012,1.409.018,2.1.018s1.338-.006,1.926-.024c1.807-.048,3.853-1.183,4.007-2.937.244-2.735,2.009-3.478,3.65-3.966a1.673,1.673,0,0,1,.945-.321,1.875,1.875,0,0,1,1.254.612,4.331,4.331,0,0,0,6,.065c1.118-1.017,2.2-2.1,3.2-3.216,1.213-1.35,1.718-3.6.47-5.036-1.421-1.641-1.142-2.979-.279-4.495a3.149,3.149,0,0,0,.184-.482,3.181,3.181,0,0,1,.25-.624c.012-.03.4-.725.951-.725h.065c2.354,0,3.942-1.171,4.839-3.579l.006-5.916A19.624,19.624,0,0,0,247.9,169.953ZM142.375,126.427l-.065-.369a6.23,6.23,0,0,1-.089-.809c-.006-1.427-.012-2.824-.018-4.221-.018-3.954-.036-8.044.065-12.063a11.293,11.293,0,0,1,1.159-4.554,6.075,6.075,0,0,1,5.844-3.514q23.311.018,46.587.018h34.572c4.447,0,7.4,2.812,7.527,7.17.1,3.383.089,6.819.077,10.143-.006,1.457-.012,2.913-.006,4.376v3.823Zm103.311,51.558c-.315.321-.785.345-1.468.345h-.4c-.166-.006-.351-.006-.553-.006-1.855,0-2.1.3-2.675,2a38.615,38.615,0,0,1-2.033,4.857c-.737,1.486-.684,1.932.357,2.985,1.956,1.986,1.962,2.265.024,4.209-.969.975-1.457,1.463-2.087,1.463s-1.13-.493-2.128-1.469c-.63-.618-1.046-.856-1.486-.856a3.7,3.7,0,0,0-1.5.488,47.554,47.554,0,0,1-5.161,2.128c-1.415.5-1.724.9-1.742,2.224,0,.375,0,.69.006.969.006.993.012,1.486-.339,1.837a1.8,1.8,0,0,1-1.35.339c-.161,0-.333-.006-.529-.006-.25-.006-.529-.006-.85-.006h-.131c-.25,0-.476,0-.678.006-.184,0-.351.006-.493.006a1.671,1.671,0,0,1-1.249-.321c-.333-.333-.327-.8-.321-1.736,0-.19.006-.4,0-.648-.006-1.926-.315-2.182-2.069-2.759A38.694,38.694,0,0,1,211.971,192a3.606,3.606,0,0,0-1.492-.488c-.446,0-.862.244-1.486.856-.987.975-1.486,1.463-2.117,1.463s-1.118-.488-2.087-1.457c-1.944-1.944-1.95-2.212-.048-4.132,1.136-1.142,1.118-1.653.422-3.062a43.106,43.106,0,0,1-2.087-5.059c-.505-1.468-.916-1.79-2.3-1.8-2.854-.024-3.056-.22-3.056-3.044,0-2.664.184-2.854,2.86-2.878,1.552-.018,1.974-.345,2.515-1.974.392-1.183.9-2.342,1.385-3.46.2-.464.4-.922.595-1.385.149-.357.309-.713.493-1.124.065-.143.131-.291.2-.446a16.23,16.23,0,0,0-1.219-1.688l-.059-.059c-1.671-1.766-1.659-2.051.119-3.829,1.029-1.029,1.546-1.546,2.2-1.546s1.159.493,2.176,1.48a2.148,2.148,0,0,0,1.451.785,3.548,3.548,0,0,0,1.463-.464,47.488,47.488,0,0,1,5.149-2.146c1.385-.493,1.73-.927,1.748-2.241.042-2.872.244-3.074,3.109-3.074,2.592,0,2.8.208,2.824,2.8.012,1.647.4,2,1.962,2.521a45.488,45.488,0,0,1,5.155,2.146,3.3,3.3,0,0,0,1.361.416,2.135,2.135,0,0,0,1.457-.779c1.034-1,1.558-1.5,2.206-1.5s1.159.511,2.152,1.522c.25.25.47.464.654.642.595.577.927.9.927,1.344s-.309.749-.927,1.356c-.178.172-.392.381-.63.624-1.183,1.213-1.237,1.605-.422,3.246a44.731,44.731,0,0,1,2.081,5.071c.476,1.361.939,1.73,2.235,1.76,2.872.071,3.074.279,3.074,3.21,0,.214,0,.41.006.589C246.026,177.158,246.032,177.646,245.687,177.985Z" fill="#fff"/>
    <g id="Group_1984" data-name="Group 1984" transform="translate(182.023 144.929)">
      <path id="Path_7633" data-name="Path 7633" d="M220.525,188.531c-1.885,2.146-3.8,4.3-5.713,6.421a2.193,2.193,0,0,1-1.587.814,1.616,1.616,0,0,1-1.124-.47,1.8,1.8,0,0,1,.1-2.669c1.147-1.3,2.295-2.586,3.472-3.906l1.665-1.867.262-.3-.262-.3-1.73-1.944c-1.124-1.266-2.229-2.509-3.329-3.751a2.4,2.4,0,0,1-.713-1.706,1.588,1.588,0,0,1,.6-1.112,1.619,1.619,0,0,1,1.052-.416,2.309,2.309,0,0,1,1.665.9c1.879,2.093,3.781,4.221,5.642,6.332A2.626,2.626,0,0,1,220.525,188.531Z" transform="translate(-211.552 -177.33)" fill="#357ac8"/>
    </g>
    <g id="Group_1985" data-name="Group 1985" transform="translate(151.139 144.935)">
      <path id="Path_7634" data-name="Path 7634" d="M168.678,195.515a1.708,1.708,0,0,1-.916.262,1.748,1.748,0,0,1-1.308-.589c-.82-.874-1.635-1.8-2.42-2.687-.309-.345-.612-.69-.916-1.034l-.767-.856c-.654-.731-1.332-1.48-1.974-2.241a2.493,2.493,0,0,1-.042-3.567c1.968-2.259,3.989-4.536,6-6.754l.012-.012.012-.012a1.737,1.737,0,0,1,1.391-.684,1.7,1.7,0,0,1,1.058.363.6.6,0,0,1,.1.077,1.775,1.775,0,0,1,.131,2.5.679.679,0,0,0-.065.065l-.024.024c-.571.672-1.171,1.338-1.754,1.98-.279.315-.565.63-.844.945-.844.951-1.688,1.9-2.634,2.973l-.262.3.262.291,1.326,1.486c1.237,1.385,2.4,2.693,3.591,4.049a4.032,4.032,0,0,1,.761,1.106A1.679,1.679,0,0,1,168.678,195.515Z" transform="translate(-159.606 -177.34)" fill="#357ac8"/>
    </g>
    <g id="Group_1986" data-name="Group 1986" transform="translate(167.606 143.264)">
      <path id="Path_7635" data-name="Path 7635" d="M195.134,176.575c-.214.886-.44,1.831-.672,2.818-.232.945-.464,1.926-.7,2.907q-1.454,6.091-2.9,12.182c-.024.089-.053.178-.077.268l-.042.119-.006.018-.006.024a1.767,1.767,0,0,1-1.718,1.385,1.814,1.814,0,0,1-.392-.048,1.718,1.718,0,0,1-1.064-.749,1.7,1.7,0,0,1-.22-1.29c.006-.03.018-.059.03-.113.719-3.127,1.48-6.3,2.212-9.37l.571-2.39c.119-.5.238-.993.357-1.492.392-1.665.8-3.377,1.243-5.053a1.673,1.673,0,0,1,1.623-1.26,1.5,1.5,0,0,1,.285.024A1.849,1.849,0,0,1,195.134,176.575Z" transform="translate(-187.302 -174.53)" fill="#357ac8"/>
    </g>
    <g id="Group_1987" data-name="Group 1987" transform="translate(169.51 178.329)">
      <path id="Path_7636" data-name="Path 7636" d="M192.289,236.988h-.03a1.82,1.82,0,0,1-1.754-1.712,1.756,1.756,0,0,1,1.742-1.766h.083a1.7,1.7,0,0,1,1.706,1.659v.083A1.744,1.744,0,0,1,192.289,236.988Z" transform="translate(-190.505 -233.51)" fill="#fff"/>
    </g>
    <g id="Group_1988" data-name="Group 1988" transform="translate(196.754 106.831)">
      <path id="Path_7580" data-name="Path 7580" d="M262.962,113.3c-2.509-.036-5.172-.054-8.365-.054-2.509,0-5.012.012-7.521.018l-3.942.018a6.622,6.622,0,0,0-1.7.262,6.911,6.911,0,0,0,1.605,13.579c1.153.03,2.384.042,3.882.042,1.023,0,2.039-.006,3.062-.012s2.051-.012,3.074-.012h.422v.012c.767,0,1.534.012,2.3.018.91.006,1.813.012,2.723.012,1.564,0,2.842-.024,4.019-.071a9.114,9.114,0,0,0,3.662-.927,6.885,6.885,0,0,0-3.222-12.883Zm2.937,8.282a3.3,3.3,0,0,1-3.074,2.057c-.036,0-.077-.006-.113-.006q-5.021.018-10.083.024c-3.353,0-6.4-.012-9.3-.03h-.2a3.414,3.414,0,0,1,.131-6.825,1.008,1.008,0,0,1,.137.006c1.147-.018,2.414-.03,3.954-.03.957,0,1.908.006,2.866.006s1.908.006,2.866.006h.416c.755,0,1.51,0,2.259-.006,1.029-.006,2.051-.006,3.08-.006,1.433,0,2.622.006,3.734.024a3.737,3.737,0,0,1,3.145,1.635A3.276,3.276,0,0,1,265.9,121.585Z" transform="translate(-236.33 -113.25)" fill="#fff"/>
    </g>
    <g id="Group_1989" data-name="Group 1989" transform="translate(170.871 106.849)">
      <path id="Path_7581" data-name="Path 7581" d="M199.7,113.28H199.7a6.929,6.929,0,0,0-.006,13.858h.036a6.929,6.929,0,1,0-.024-13.858Zm-.024,10.369a3.4,3.4,0,0,1-3.347-3.383v-.077a3.392,3.392,0,0,1,3.353-3.371h.048a3.416,3.416,0,1,1-.053,6.831Z" transform="translate(-192.795 -113.28)" fill="#357ac8"/>
    </g>
    <g id="Group_1990" data-name="Group 1990" transform="translate(151.775 106.855)">
      <path id="Path_7582" data-name="Path 7582" d="M167.6,113.29h-.018a6.912,6.912,0,0,0-6.908,6.914,6.911,6.911,0,1,0,6.926-6.914Zm3.383,7a3.419,3.419,0,0,1-3.4,3.359h-.054a3.407,3.407,0,0,1,.006-6.813h.048a3.419,3.419,0,0,1,3.4,3.359Z" transform="translate(-160.675 -113.29)" fill="#357ac8"/>
    </g>
    <g id="Group_1991" data-name="Group 1991" transform="translate(208.873 162.354)">
      <path id="Path_7583" data-name="Path 7583" d="M269.705,206.64a13,13,0,0,0-12.99,12.99v.083a12.988,12.988,0,0,0,12.961,12.907h.054a12.99,12.99,0,0,0-.024-25.981Zm.006,22.473h-.077a9.474,9.474,0,0,1,.089-18.948h.059a9.474,9.474,0,0,1-.071,18.948Z" transform="translate(-256.715 -206.64)" fill="#357ac8"/>
    </g>
  </g>
</svg>
