<svg xmlns="http://www.w3.org/2000/svg" width="34.338" height="24.143" viewBox="0 0 34.338 24.143">
  <path id="Icon_awesome-youtube" data-name="Icon awesome-youtube" d="M34.67,8.278a4.314,4.314,0,0,0-3.036-3.055C28.956,4.5,18.219,4.5,18.219,4.5S7.481,4.5,4.8,5.222A4.315,4.315,0,0,0,1.767,8.278,45.258,45.258,0,0,0,1.05,16.6a45.258,45.258,0,0,0,.718,8.318A4.25,4.25,0,0,0,4.8,27.921c2.678.722,13.415.722,13.415.722s10.738,0,13.415-.722a4.25,4.25,0,0,0,3.036-3.007,45.258,45.258,0,0,0,.718-8.318,45.258,45.258,0,0,0-.718-8.318ZM14.707,21.7V11.49L23.682,16.6,14.707,21.7Z" transform="translate(-1.05 -4.5)" fill="#fff"/>
</svg>
